<svg xmlns="http://www.w3.org/2000/svg" xmlns:xlink="http://www.w3.org/1999/xlink" id="Layer_1" width="117.9" height="135.7" x="0" style="enable-background:new 0 0 117.9 135.7" y="0" version="1.1" viewBox="0 0 117.9 135.7" xml:space="preserve"><g><g><linearGradient id="SVGID_1_" x1="10.023" x2="108.663" y1="128.431" y2="3.511" gradientUnits="userSpaceOnUse"><stop offset="0" style="stop-color:#ab63a7"/><stop offset=".64" style="stop-color:#ca5595"/><stop offset="1" style="stop-color:#d64d8e"/></linearGradient><path style="fill:url(#SVGID_1_)" d="M116,12.3c1.3-1.4,2-3.2,2-5.2c-0.1-4-3.5-7.2-7.5-7c-2,0.1-3.8,0.9-5,2.3l0,0L2.8,119.7 C1,121.4,0,123.8,0,126.4c0.1,5.2,4.3,9.4,9.5,9.3c2.9,0,5.4-1.3,7.1-3.4c0,0,0,0,0,0L116,12.3z"/><linearGradient id="SVGID_2_" x1="28.901" x2="108.821" y1="47.415" y2="8.175" gradientUnits="userSpaceOnUse"><stop offset="0" style="stop-color:#ed427c"/><stop offset=".428" style="stop-color:#e14885"/><stop offset="1" style="stop-color:#d64d8e"/></linearGradient><path style="fill:url(#SVGID_2_)" d="M117.9,7c-0.1-4-3.5-7.1-7.5-7c-1.1,0-2.2,0.3-3.1,0.8c0,0,0,0,0,0l-85.5,42 c-2.2,1-3.7,3.2-3.5,5.8c0.2,3.3,3,5.8,6.3,5.6c0.9-0.1,1.7-0.3,2.4-0.7c0,0,0,0,0,0L113.3,14C116.1,12.9,118,10.2,117.9,7z"/><linearGradient id="SVGID_3_" x1="20.734" x2="90.574" y1="46.539" y2="121.059" gradientUnits="userSpaceOnUse"><stop offset="0" style="stop-color:#ed427c"/><stop offset=".108" style="stop-color:#ee4c77"/><stop offset=".537" style="stop-color:#f1685f"/><stop offset=".845" style="stop-color:#f27748"/><stop offset="1" style="stop-color:#f37c3d"/></linearGradient><path style="fill:url(#SVGID_3_)" d="M93.2,106.8L28.5,44.6c-1.2-1.2-2.9-2-4.7-1.9c-3.3,0.2-5.8,3-5.6,6.3 c0.1,1.3,0.6,2.5,1.3,3.4c0,0,0,0,0,0l56.3,69.8c2.1,2.9,5.6,4.7,9.4,4.7c6.4,0,11.6-5.3,11.6-11.7 C96.8,111.9,95.4,108.9,93.2,106.8z"/><g><path style="fill:#3fbfef" d="M90.4,104.9C94.2,106.8,90.3,104.8,90.4,104.9L90.4,104.9z"/><linearGradient id="SVGID_4_" x1="7.955" x2="95.795" y1="68.457" y2="121.737" gradientUnits="userSpaceOnUse"><stop offset="0" style="stop-color:#3fbfef"/><stop offset=".329" style="stop-color:#a1aba8"/><stop offset=".653" style="stop-color:#d0936f"/><stop offset=".884" style="stop-color:#e9834c"/><stop offset="1" style="stop-color:#f37c3d"/></linearGradient><path style="fill:url(#SVGID_4_)" d="M96.8,114.6c0.1-3.7-1.8-7.5-6.5-9.8c-5.5-2.8-11.1-5.5-16.6-8.3c-5.5-2.7-11-5.5-16.4-8.2 c-5.5-2.7-11-5.5-16.5-8.2c-5.5-2.8-11.1-5.6-16.6-8.3c-5.4-2.7-17.8-9-17.8-9c-0.9-0.4-1.9-0.5-2.9-0.3c-2.5,0.6-4,3-3.4,5.5 c0.3,1.2,1,2.1,1.9,2.8c0,0,0.1,0,0.1,0.1c0,0,0,0,0.1,0c0,0,1.4,0.9,2.1,1.5c1.3,0.9,2.6,1.8,3.9,2.7c2.5,1.8,5,3.5,7.5,5.3 c5.1,3.6,10.2,7.2,15.3,10.8c5,3.5,10,7.1,15,10.6c5.1,3.6,10.1,7.2,15.2,10.8c5.1,3.6,10.1,7.3,15.2,10.8 c0.6,0.4,1.2,0.9,1.9,1.3c0.1,0.1,0.3,0.2,0.4,0.2l0,0c1.9,1.3,4.2,2.1,6.7,2.1c6.4,0,11.6-5.3,11.6-11.7 C96.8,115,96.8,114.8,96.8,114.6z"/></g></g><g><rect style="fill:#000" width="51" height="51" x="25.9" y="50.6"/><rect style="fill:#fff" width="19.1" height="3.2" x="30.3" y="92.1"/><g><path style="fill:#fff" d="M30.1,64.1l1.5-1.4c0.4,0.5,0.8,0.8,1.3,0.8c0.6,0,0.9-0.4,0.9-1.2V57h2.3v5.3 c0,1-0.3,1.8-0.8,2.3c-0.5,0.5-1.3,0.8-2.3,0.8C31.6,65.5,30.7,64.9,30.1,64.1z"/><path style="fill:#fff" d="M36.7,57h6.7V59h-4.4v1.3h4v1.8h-4v1.3h4.5v2h-6.7V57z"/><path style="fill:#fff" d="M46.4,59h-2.5v-2h7.3v2h-2.5v6.3h-2.3V59z"/><path style="fill:#fff" d="M30.3,67.3h4.3c1,0,1.8,0.3,2.3,0.7c0.3,0.3,0.5,0.8,0.5,1.4v0c0,1-0.5,1.5-1.3,1.9 c1,0.3,1.7,0.9,1.7,2v0c0,1.4-1.2,2.3-3.1,2.3h-4.3V67.3z M35.1,69.8c0-0.5-0.4-0.7-1-0.7h-1.5v1.5H34 C34.7,70.6,35.1,70.4,35.1,69.8L35.1,69.8z M34.3,72.2h-1.8v1.5h1.8c0.7,0,1.1-0.3,1.1-0.8v0C35.5,72.5,35.1,72.2,34.3,72.2z"/><path style="fill:#fff" d="M38.1,67.3H42c1.3,0,2.2,0.3,2.7,0.9c0.5,0.5,0.7,1.1,0.7,1.9v0c0,1.3-0.7,2.1-1.7,2.6l2,2.9h-2.6 l-1.7-2.5h-1v2.5h-2.3V67.3z M41.9,71.3c0.8,0,1.2-0.4,1.2-1v0c0-0.7-0.5-1-1.2-1h-1.5v2H41.9z"/><path style="fill:#fff" d="M48.2,67.2h2.2l3.5,8.4h-2.5l-0.6-1.5h-3.2l-0.6,1.5h-2.4L48.2,67.2z M50.2,72.3L49.3,70l-0.9,2.4 H50.2z"/><path style="fill:#fff" d="M54.2,67.3h2.3v8.3h-2.3V67.3z"/><path style="fill:#fff" d="M57.1,67.3h2.2l3.4,4.4v-4.4h2.3v8.3h-2L59.4,71v4.6h-2.3V67.3z"/><path style="fill:#fff" d="M65.1,74.4l1.3-1.5c0.8,0.7,1.7,1,2.7,1c0.6,0,1-0.2,1-0.6v0c0-0.4-0.3-0.5-1.4-0.8 c-1.8-0.4-3.1-0.9-3.1-2.6v0c0-1.5,1.2-2.7,3.2-2.7c1.4,0,2.5,0.4,3.4,1.1L71,69.9c-0.8-0.5-1.6-0.8-2.3-0.8 c-0.6,0-0.8,0.2-0.8,0.5v0c0,0.4,0.3,0.5,1.4,0.8c1.9,0.4,3.1,1,3.1,2.6v0c0,1.7-1.3,2.7-3.4,2.7C67.5,75.7,66.1,75.3,65.1,74.4z"/></g></g></g></svg>